<svg aria-hidden="true" style="position:absolute;width:0;height:0" xmlns="http://www.w3.org/2000/svg" overflow="hidden"><defs><symbol id="icon-clock-1" viewBox="0 0 32 32"><path d="M16 32c-4.274 0-8.292-1.664-11.314-4.686S0 20.274 0 16 1.664 7.708 4.686 4.686C7.708 1.664 11.726 0 16 0s8.292 1.664 11.314 4.686C30.336 7.708 32 11.726 32 16s-1.664 8.292-4.686 11.314A15.895 15.895 0 0116 32zm0-30.125c-3.773 0-7.32 1.469-9.988 4.137S1.875 12.227 1.875 16s1.469 7.32 4.137 9.988 6.215 4.137 9.988 4.137 7.32-1.469 9.988-4.137 4.137-6.215 4.137-9.988-1.469-7.32-4.137-9.988S19.773 1.875 16 1.875z"/><path d="M15.063 3.752h1.875v2.502h-1.875zm7.162 4.695l1.769-1.769 1.326 1.326-1.769 1.769zm3.521 6.616h2.502v1.875h-2.502zm-3.522 8.491l1.326-1.326 1.769 1.769-1.326 1.326zm-7.161 2.192h1.875v2.502h-1.875zm-8.39-1.75l1.769-1.769 1.326 1.326-1.769 1.769zm-2.921-8.933h2.502v1.875H3.752zm2.923-7.061l1.326-1.326L9.77 8.445 8.444 9.771zm15.943 8.936h-7.556V9.382h1.875v5.681h5.681z"/></symbol><symbol id="icon-compass-1" viewBox="0 0 32 32"><path d="M18.428 4.641a2.938 2.938 0 00.529-1.684C18.957 1.327 17.631 0 16 0s-2.957 1.326-2.957 2.957c0 .626.196 1.206.529 1.684C7.124 5.792 2.214 11.44 2.214 18.213 2.214 25.815 8.399 32 16.001 32s13.787-6.185 13.787-13.787c0-6.774-4.91-12.422-11.358-13.572zm9.881 12.845h-1.962c-.358-5.141-4.479-9.262-9.62-9.62V5.904c6.221.364 11.218 5.361 11.582 11.582zM16 1.455c.828 0 1.502.674 1.502 1.502 0 .73-.524 1.34-1.216 1.474l-.283-.004h-.002c-.095 0-.19.002-.285.004A1.503 1.503 0 0114.5 2.957c0-.828.674-1.502 1.502-1.502zm-.728 4.449v1.962c-5.141.358-9.262 4.479-9.62 9.62H3.69c.364-6.221 5.36-11.218 11.582-11.582zm0 24.619C9.051 30.159 4.054 25.162 3.69 18.941h1.962c.358 5.141 4.479 9.262 9.62 9.62v1.962zM16 27.132c-4.918 0-8.918-4.001-8.918-8.918S11.083 9.296 16 9.296s8.918 4.001 8.918 8.918-4.001 8.918-8.918 8.918zm.728 3.391v-1.962c5.141-.358 9.262-4.479 9.62-9.62h1.962c-.364 6.221-5.36 11.218-11.582 11.582z"/><path d="M16.085 10.464a.728.728 0 00-.728.728v.001a.727.727 0 10.728-.729zm-1.678.887a.727.727 0 00-.927-.447 7.915 7.915 0 00-5.302 7.468.728.728 0 001.456 0 6.46 6.46 0 014.326-6.094.727.727 0 00.447-.927zm1.508 13.156a.728.728 0 10.728.728v-.001a.727.727 0 00-.728-.727zm7.179-7.179a.728.728 0 00-.728.728 6.46 6.46 0 01-4.326 6.094.727.727 0 10.48 1.374 7.915 7.915 0 005.302-7.468.727.727 0 00-.727-.727zm-2.686-3.523a.725.725 0 00-.809-.151l.005-.002-.181.079c-.978.425-2.066.613-3.234.557-1.105-.053-2.186.365-2.968 1.146s-1.199 1.863-1.146 2.968c.056 1.167-.131 2.255-.557 3.234l-.079.181a.727.727 0 00.667 1.017c.098 0 .197-.02.29-.06l.181-.079c.978-.425 2.066-.613 3.234-.557 1.105.053 2.186-.365 2.968-1.146s1.199-1.863 1.146-2.968c-.056-1.167.131-2.255.557-3.234l.079-.181a.725.725 0 00-.153-.805zm-1.936 4.289c.033.696-.23 1.377-.722 1.869s-1.174.755-1.869.722a8.997 8.997 0 00-2.593.24 8.997 8.997 0 00.24-2.593 2.472 2.472 0 01.722-1.869 2.482 2.482 0 011.869-.722 8.997 8.997 0 002.593-.24 8.997 8.997 0 00-.24 2.593z"/></symbol><symbol id="icon-exchange-2-1" viewBox="0 0 32 32"><path d="M29.355 20.456a3.342 3.342 0 01-3.342 3.342H4.196l4.4-4.4-1.575-1.575L.72 24.124a1.114 1.114 0 000 1.575L7.021 32l1.575-1.575-4.4-4.4h21.817a5.576 5.576 0 005.569-5.569V16h-2.228zM2.621 11.544a3.342 3.342 0 013.342-3.342H27.78l-4.4 4.4 1.575 1.575 6.301-6.301a1.114 1.114 0 000-1.575L24.955 0 23.38 1.575l4.4 4.4H5.963a5.575 5.575 0 00-5.569 5.569V16h2.228z"/></symbol><symbol id="icon-gear-1" viewBox="0 0 32 32"><path d="M31.24 20.5l-3.368-2.819C27.958 17.093 28 16.54 28 16s-.042-1.093-.128-1.681L31.24 11.5a.663.663 0 00.148-.847l.002.003-3.066-5.311a.668.668 0 00-.811-.291l.005-.002-4.119 1.505a11.964 11.964 0 00-2.917-1.678L19.724.552a.668.668 0 00-.657-.551h-6.133c-.328 0-.6.236-.656.547l-.001.004-.758 4.327a11.931 11.931 0 00-2.917 1.678L4.483 5.052a.664.664 0 00-.806.293L.611 10.656a.662.662 0 00.149.843l.001.001 3.368 2.819c-.086.588-.128 1.141-.128 1.681s.042 1.093.128 1.681L.761 20.5a.663.663 0 00-.148.847l-.002-.003 3.066 5.311a.668.668 0 00.806.293l4.119-1.505a11.964 11.964 0 002.917 1.678l.758 4.328a.668.668 0 00.657.551h6.133c.328 0 .6-.236.656-.547l.001-.004.758-4.328a11.931 11.931 0 002.917-1.678l4.119 1.505a.669.669 0 00.806-.293l3.066-5.311a.662.662 0 00-.149-.843l-.001-.001zm-3.791 5.004l-3.948-1.443a.664.664 0 00-.657.115c-.936.785-2.006 1.4-3.184 1.831a.669.669 0 00-.427.507l-.001.004-.726 4.148h-5.013l-.726-4.148a.672.672 0 00-.423-.51l-.005-.002a10.632 10.632 0 01-3.184-1.831.661.661 0 00-.662-.114l.005-.002-3.948 1.443-2.506-4.341 3.228-2.703a.668.668 0 00.229-.63l.001.004c-.114-.656-.169-1.256-.169-1.835s.055-1.179.169-1.835a.663.663 0 00-.228-.625l-.001-.001-3.228-2.703 2.506-4.341 3.948 1.443a.663.663 0 00.658-.116l-.001.001c.936-.784 2.007-1.4 3.184-1.831a.669.669 0 00.427-.507l.001-.004.726-4.148h5.013l.726 4.148a.672.672 0 00.423.51l.005.002a10.632 10.632 0 013.184 1.831.664.664 0 00.657.115l3.948-1.443 2.506 4.341-3.229 2.703a.668.668 0 00-.229.629l-.001-.004c.114.656.169 1.257.169 1.835s-.055 1.179-.169 1.835a.663.663 0 00.228.625l.001.001 3.229 2.703-2.506 4.341z"/><path d="M16 9.333c-3.676 0-6.667 2.991-6.667 6.667s2.991 6.667 6.667 6.667 6.667-2.991 6.667-6.667S19.676 9.333 16 9.333zm0 12c-2.941 0-5.333-2.393-5.333-5.333S13.06 10.667 16 10.667 21.333 13.06 21.333 16 18.94 21.333 16 21.333z"/></symbol><symbol id="icon-global-1" viewBox="0 0 32 32"><path d="M16 0C7.164 0 0 7.164 0 16s7.164 16 16 16 16-7.164 16-16C31.99 7.168 24.832.01 16 0zm13.838 21.605l-4.55.785c.496-1.747.799-3.758.837-5.835v-.022h4.795a14.794 14.794 0 01-1.119 5.17l.036-.098zM1.08 16.533h4.795c.038 2.099.342 4.111.877 6.025l-.04-.168-4.55-.785c-.625-1.495-1.017-3.229-1.082-5.046l-.001-.026zm1.082-6.138l4.55-.785c-.496 1.746-.799 3.758-.837 5.835v.022H1.08a14.794 14.794 0 011.119-5.17l-.036.098zm14.371-1.832c2.039.027 4.014.216 5.938.554l-.221-.032 1.883.325c.551 1.805.886 3.884.925 6.036v.021h-8.525zm5.9-.529c-1.758-.316-3.796-.511-5.874-.537h-.025v-6.4c3.058.294 5.714 3.093 7.219 7.167zm-6.966-.537a38 38 0 00-6.126.571l.227-.033-1.32.228c1.505-4.075 4.161-6.876 7.219-7.168zM9.75 9.085c1.703-.307 3.678-.495 5.692-.522h.025v6.903H6.942c.039-2.172.374-4.251.967-6.219l-.042.162zm-2.809 7.448h8.525v6.903a37.065 37.065 0 01-5.938-.554l.221.032-1.883-.325c-.551-1.805-.886-3.884-.925-6.036v-.021zm2.626 7.433c1.757.316 3.794.512 5.873.54h.027v6.4c-3.058-.294-5.714-3.094-7.219-7.168zm6.966.54a38.218 38.218 0 006.127-.574l-.228.033 1.32-.228c-1.505 4.075-4.161 6.876-7.219 7.168zm5.717-1.591c-1.703.307-3.678.495-5.692.522h-.025v-6.903h8.525a22.918 22.918 0 01-.967 6.219l.042-.162zm3.875-7.448a23.926 23.926 0 00-.877-6.025l.04.168 4.55.785c.625 1.495 1.017 3.229 1.082 5.046l.001.026zm3.173-6.248l-4.362-.753c-.827-2.645-2.297-4.889-4.23-6.628l-.013-.012c3.772 1.284 6.798 3.917 8.566 7.31l.039.083zM11.307 1.826a14.727 14.727 0 00-4.215 6.536l-.028.104-4.362.753c1.807-3.476 4.833-6.109 8.499-7.362l.106-.031zM2.702 22.781l4.362.753c.827 2.645 2.297 4.889 4.23 6.628l.013.012c-3.772-1.284-6.798-3.917-8.566-7.31l-.039-.083zm17.991 7.392a14.735 14.735 0 004.215-6.536l.028-.104 4.362-.753c-1.807 3.476-4.833 6.108-8.499 7.361l-.106.031z"/></symbol><symbol id="icon-heart-1-1" viewBox="0 0 32 32"><path d="M16 30.22c-.456 0-.895-.165-1.237-.465a374.562 374.562 0 00-3.639-3.13l-.006-.005c-3.224-2.747-6.008-5.12-7.945-7.457-2.165-2.613-3.174-5.09-3.174-7.796 0-2.629.902-5.055 2.539-6.831C4.195 2.739 6.467 1.75 8.939 1.75c1.847 0 3.539.584 5.028 1.736A10.308 10.308 0 0116 5.608c.6-.83 1.281-1.541 2.033-2.123 1.489-1.152 3.181-1.736 5.028-1.736 2.471 0 4.744.99 6.401 2.786C31.099 6.311 32 8.736 32 11.366c0 2.706-1.008 5.184-3.174 7.796-1.937 2.337-4.721 4.71-7.944 7.457-1.102.939-2.35 2.002-3.645 3.136a1.87 1.87 0 01-1.236.464H16zM8.939 3.624c-1.942 0-3.725.775-5.023 2.182-1.317 1.428-2.042 3.403-2.042 5.56 0 2.276.846 4.312 2.743 6.6 1.833 2.212 4.56 4.536 7.717 7.227l.006.005c1.104.941 2.355 2.007 3.657 3.146a430.966 430.966 0 013.669-3.151c3.157-2.691 5.884-5.014 7.717-7.226 1.896-2.289 2.742-4.324 2.742-6.6 0-2.157-.725-4.132-2.042-5.56-1.297-1.407-3.081-2.182-5.023-2.182-1.422 0-2.728.452-3.881 1.344-1.028.795-1.743 1.8-2.163 2.503-.216.362-.596.577-1.016.577s-.801-.216-1.016-.577c-.419-.703-1.135-1.708-2.163-2.503-1.153-.892-2.459-1.344-3.881-1.344z"/></symbol><symbol id="icon-mail-1" viewBox="0 0 32 32"><path d="M30.4 3.733H1.6a1.6 1.6 0 00-1.6 1.6v21.333a1.6 1.6 0 001.6 1.6h28.8a1.6 1.6 0 001.6-1.6V5.333a1.6 1.6 0 00-1.6-1.6zm.533 22.934a.533.533 0 01-.533.533H1.6a.533.533 0 01-.533-.533V5.334c0-.295.239-.533.533-.533h28.8c.295 0 .533.239.533.533v21.333z"/><path d="M29.38 5.869a.529.529 0 00-.39.124L16.687 16.328a1.068 1.068 0 01-1.374-.001l.002.001L3.011 5.992a.533.533 0 00-.686.816l.001.001L14.63 17.144a2.13 2.13 0 002.745 0L29.679 6.809a.531.531 0 00.064-.753l.001.001a.534.534 0 00-.36-.188h-.002zM10.258 17.071a.528.528 0 00-.514.165l-7.467 8a.532.532 0 10.779.727l7.467-8a.532.532 0 00-.262-.893l-.004-.001zm11.999.165a.533.533 0 10-.779.727l7.467 8a.532.532 0 00.779-.728l-7.466-7.999z"/></symbol><symbol id="icon-phone-1-1" viewBox="0 0 32 32"><path d="M31.16 24.686l-6.477-4.319a1.89 1.89 0 00-2.531.411l-1.887 2.426a.805.805 0 01-1.038.215l.004.002-.359-.198c-1.19-.648-2.67-1.456-5.652-4.439s-3.791-4.465-4.44-5.652l-.197-.359a.808.808 0 01.211-1.036l.002-.001L11.22 9.85a1.89 1.89 0 00.412-2.531L7.313.842A1.88 1.88 0 004.778.271L2.07 1.898A3.839 3.839 0 00.335 4.132l-.007.027c-.975 3.554-.242 9.687 8.793 18.722C16.308 30.067 21.658 32 25.335 32h.04c.877 0 1.726-.12 2.532-.343l-.066.016a3.834 3.834 0 002.251-1.725l.01-.018 1.629-2.707a1.88 1.88 0 00-.57-2.536zm-.348 1.989l-1.625 2.708a2.774 2.774 0 01-1.607 1.256l-.019.005c-3.281.901-9.012.155-17.685-8.519S.457 7.721 1.357 4.44a2.778 2.778 0 011.249-1.622l.013-.007 2.708-1.625a.816.816 0 011.1.247l4.316 6.476a.822.822 0 01-.178 1.099L8.14 10.894a1.865 1.865 0 00-.494 2.395l.193.35c.682 1.25 1.529 2.805 4.622 5.898s4.648 3.94 5.897 4.622l.35.193c.81.454 1.831.244 2.395-.494l1.886-2.425a.822.822 0 011.099-.178l6.476 4.319a.814.814 0 01.247 1.1zM18.132 5.336c5.004.006 9.06 4.061 9.065 9.065a.533.533 0 101.066 0c-.006-5.593-4.539-10.126-10.132-10.132a.533.533 0 100 1.066z"/><path d="M18.132 8.536a5.873 5.873 0 015.866 5.866.533.533 0 001.066 0 6.94 6.94 0 00-6.932-6.932.533.533 0 100 1.066z"/><path d="M18.132 11.735a2.67 2.67 0 012.666 2.666.533.533 0 001.066 0 3.737 3.737 0 00-3.733-3.733.533.533 0 100 1.066z"/></symbol><symbol id="icon-smart-cart-1" viewBox="0 0 32 32"><path d="M31.121 6.072c-.593-.678-1.439-1.051-2.381-1.051H5.963l-.229-1.719C5.487 1.45 4.198 0 2.799 0H1.125a.938.938 0 000 1.876h1.674c.301 0 .938.636 1.076 1.675l2.684 20.127c.118.887.574 1.718 1.283 2.339a3.87 3.87 0 001.799.895 3.384 3.384 0 00-.416 1.636v.004c0 1.901 1.547 3.448 3.448 3.448s3.448-1.547 3.448-3.448v-.002a3.41 3.41 0 00-.39-1.589l.009.019h4.913c-.24.456-.381.997-.381 1.57v.003c0 1.901 1.547 3.448 3.448 3.448s3.448-1.547 3.448-3.448v-.002a3.41 3.41 0 00-.39-1.589l.009.019h2.456a.938.938 0 000-1.876H10.331c-.916 0-1.792-.767-1.913-1.675l-.196-1.471h13.323c.001 0 0 0 0 0h5.188c.895 0 1.779-.342 2.488-.963s1.165-1.452 1.283-2.339l1.345-10.085c.125-.934-.134-1.821-.727-2.499zm-16.875 22.48c0 .867-.706 1.573-1.573 1.573s-1.573-.706-1.573-1.573.706-1.573 1.573-1.573 1.573.706 1.573 1.573zm11.046 0c0 .867-.706 1.573-1.573 1.573s-1.573-.706-1.573-1.573.706-1.573 1.573-1.573 1.573.706 1.573 1.573zM29.71 7.307c.232.265.331.626.279 1.016l-.564 4.229h-6.379l.377-5.656h5.316c.394 0 .738.146.97.411zM16.396 20.083l-.377-5.656h5.023l-.377 5.656zm-.502-7.531l-.377-5.656h6.027l-.377 5.656zm-2.256-5.656l.377 5.656H6.967l-.754-5.656zm-6.421 7.531h6.923l.377 5.656H7.971zm19.514 5.656h-4.187l.377-5.656h6.254l-.531 3.981c-.121.908-.997 1.675-1.913 1.675z"/></symbol><symbol id="icon-strongbox-1" viewBox="0 0 32 32"><path d="M31.467 0H.534a.533.533 0 00-.533.533v30.933c0 .294.239.533.533.533h2.667c.249 0 .458-.17.516-.401l.001-.004.433-1.729h23.7l.433 1.729c.06.234.269.404.517.404h2.667a.533.533 0 00.533-.533V.532a.533.533 0 00-.533-.533zM2.783 30.933H1.066v-1.067h1.983zm28.15 0h-1.717l-.267-1.067h1.983zm0-2.133H1.066V1.067h29.867z"/><path d="M2.133 17.067H3.2v9.067c0 .295.239.533.533.533h24.533a.533.533 0 00.533-.533v-3.2h.533a.533.533 0 00.533-.533v-3.2a.533.533 0 00-.533-.533h-.533v-7.467h.533a.533.533 0 00.533-.533v-3.2a.533.533 0 00-.533-.533h-.533v-3.2a.533.533 0 00-.533-.533H3.733a.533.533 0 00-.533.533v9.067H2.133a.533.533 0 00-.533.533v3.2c0 .294.239.533.533.533zm26.667 4.8h-1.6v-2.133h1.6zM28.8 8v2.133h-1.6V8zM4.267 4.267h23.467v2.667h-1.067a.533.533 0 00-.533.533v3.2c0 .294.239.533.533.533h1.067v7.467h-1.067a.533.533 0 00-.533.533v3.2c0 .295.239.533.533.533h1.067V25.6H4.267v-8.534h1.067a.533.533 0 00.533-.533v-3.2a.533.533 0 00-.533-.533H4.267zm-1.6 9.6H4.8V16H2.667z"/><path d="M16 13.6a2.133 2.133 0 100-4.266 2.133 2.133 0 000 4.266zm0-3.2a1.067 1.067 0 110 2.135 1.067 1.067 0 010-2.135zm0 7.2a2.668 2.668 0 00-.027 5.334h.014a2.66 2.66 0 002.128-1.06l.005-.007h3.747a1.6 1.6 0 100-3.2H18.12a2.657 2.657 0 00-2.119-1.067zm0 4.267a1.6 1.6 0 110-3.2 1.6 1.6 0 010 3.2zm2.613-2.134h3.253a.533.533 0 010 1.066h-3.253a2.71 2.71 0 00-.003-1.084l.003.017z"/><path d="M16 16.533a5.068 5.068 0 10-5.067-5.067A5.073 5.073 0 0016 16.533zm-3.2-5.6h-.76a3.966 3.966 0 01.791-1.898l-.007.009.533.536a.53.53 0 00.754 0 .53.53 0 000-.754l-.537-.536a3.95 3.95 0 011.87-.782l.021-.002v.76a.534.534 0 001.066 0v-.76a3.976 3.976 0 011.898.791l-.009-.007-.537.536a.535.535 0 000 .754.533.533 0 00.754 0l.533-.536c.406.525.685 1.167.782 1.868l.002.021h-.757a.533.533 0 000 1.066h.76a3.962 3.962 0 01-.791 1.898l.007-.009-.533-.537a.53.53 0 00-.754 0 .53.53 0 000 .754l.537.536a3.95 3.95 0 01-1.87.782l-.021.002v-.76a.534.534 0 00-1.066 0v.76a3.976 3.976 0 01-1.898-.791l.009.007.537-.536a.535.535 0 000-.754.535.535 0 00-.754 0l-.533.537a3.938 3.938 0 01-.782-1.868l-.002-.021h.757a.533.533 0 000-1.066z"/></symbol></defs></svg>