<svg id="bank"  viewBox="0 -35 452 452"  xmlns="http://www.w3.org/2000/svg"><path d="M411.9 0H40.1C18.1 0 0 18.4 0 40.4v268.3A40.4 40.4 0 0040.1 349H60v22.6c0 5.5 4.5 10.4 10 10.4h76c5.5 0 10-4.9 10-10.4V349h150v22.6c0 5.5 4.5 10.4 10 10.4h76c5.5 0 10-4.9 10-10.4V349h9.9a40.33 40.33 0 0040.1-40.3V40.4c0-22-18.1-40.4-40.1-40.4zM136 362H80v-13h56zm246 0h-56v-13h56zm50-54a20.06 20.06 0 01-20 20H40a20.06 20.06 0 01-20-20V40a20.06 20.06 0 0120-20h372a20.06 20.06 0 0120 20zm0 0"/><path d="M408 55a10.03 10.03 0 00-10-10H55a10.03 10.03 0 00-10 10v239a10.03 10.03 0 0010 10h343a10.03 10.03 0 0010-10zm-21 229H65V65h322zm0 0"/><path d="M221.2 247.1A72.62 72.62 0 00293 185h49a10 10 0 100-20h-48.9a72.52 72.52 0 10-71.9 82.1zm0-125.1a52.6 52.6 0 0151.6 43H254a34.14 34.14 0 10-.3 19.9h19a52.51 52.51 0 11-51.5-62.9zm14 54.8a14 14 0 11.1-3.9 7.74 7.74 0 00-.2 2.2c-.06.57-.03 1.14.1 1.7zm0 0"/></svg>