<svg id="compass" xmlns="http://www.w3.org/2000/svg" viewBox="0 0 512 512"><path d="M256 85.33c-117.63 0-213.33 95.7-213.33 213.34S138.37 512 256 512s213.33-95.7 213.33-213.33S373.63 85.33 256 85.33zm0 409.6c-108.22 0-196.27-88.04-196.27-196.26S147.78 102.4 256 102.4s196.27 88.04 196.27 196.27S364.22 494.93 256 494.93zM256 0a34.17 34.17 0 00-34.13 34.13c0 18.83 15.3 34.14 34.13 34.14s34.13-15.31 34.13-34.14A34.17 34.17 0 00256 0zm0 51.2a17.08 17.08 0 01-17.07-17.07c0-9.4 7.66-17.06 17.07-17.06s17.07 7.65 17.07 17.06c0 9.42-7.66 17.07-17.07 17.07z"/><path d="M256 264.53c-18.82 0-34.13 15.31-34.13 34.14s15.3 34.13 34.13 34.13 34.13-15.3 34.13-34.13-15.3-34.14-34.13-34.14zm0 51.2c-9.41 0-17.07-7.65-17.07-17.06S246.6 281.6 256 281.6s17.07 7.65 17.07 17.07-7.66 17.06-17.07 17.06z"/><path d="M354.3 200.35a13.94 13.94 0 00-14.84-3.14l-130.11 50.04a8.52 8.52 0 00-4.9 4.9l-49.9 129.73a14.14 14.14 0 0013.18 19.17c1.7 0 3.41-.3 5.06-.93l129.72-49.9a8.52 8.52 0 004.9-4.9l50.05-130.11a13.93 13.93 0 00-3.16-14.86zm-61.45 135.3l-119.98 46.16 46.15-119.99 119.97-46.14-46.14 119.98zM256 25.6a8.53 8.53 0 00-8.53 8.53v59.74a8.53 8.53 0 1017.06 0V34.13A8.53 8.53 0 00256 25.6z"/><path d="M256 119.47c-98.82 0-179.2 80.39-179.2 179.2s80.38 179.2 179.2 179.2 179.2-80.4 179.2-179.2-80.38-179.2-179.2-179.2zm0 341.33c-89.4 0-162.13-72.73-162.13-162.13S166.6 136.53 256 136.53s162.13 72.73 162.13 162.14S345.4 460.8 256 460.8z"/><path d="M256 153.6a8.53 8.53 0 00-8.53 8.53v17.07a8.53 8.53 0 1017.06 0v-17.07a8.53 8.53 0 00-8.53-8.53zM256 409.6a8.53 8.53 0 00-8.53 8.53v17.07a8.53 8.53 0 1017.06 0v-17.07a8.53 8.53 0 00-8.53-8.53zM392.53 290.13h-17.06a8.53 8.53 0 100 17.07h17.06a8.53 8.53 0 100-17.07zM136.53 290.13h-17.06a8.53 8.53 0 100 17.07h17.06a8.53 8.53 0 100-17.07zM358.57 389.17l-12.06-12.07a8.52 8.52 0 10-12.07 12.07l12.07 12.07a8.51 8.51 0 0012.06 0 8.52 8.52 0 000-12.07zM177.56 208.16L165.5 196.1a8.52 8.52 0 10-12.07 12.06l12.07 12.07a8.51 8.51 0 0012.06 0 8.52 8.52 0 000-12.07z"/></svg>