<svg id="icons" xmlns="http://www.w3.org/2000/svg" viewBox="0 0 512.002 512.002"><path d="M256 512c-35.567 0-64.503-28.936-64.503-64.502v-4.397a196.993 196.993 0 01-22.175-9.2l-3.121 3.12c-12.142 12.144-28.339 18.833-45.609 18.833s-33.467-6.689-45.612-18.833c-25.147-25.15-25.147-66.071 0-91.222l3.12-3.118a197.018 197.018 0 01-9.199-22.175h-4.397C28.936 320.505 0 291.568 0 256.001s28.937-64.503 64.503-64.503h4.395a196.916 196.916 0 019.2-22.175l-3.12-3.12c-25.147-25.15-25.147-66.071 0-91.221 12.145-12.145 28.342-18.834 45.612-18.834s33.467 6.689 45.61 18.834l3.12 3.118a196.993 196.993 0 0122.175-9.2v-4.395c0-35.567 28.937-64.503 64.503-64.503s64.503 28.937 64.503 64.503V68.9a197.366 197.366 0 0122.175 9.2l3.12-3.12c12.144-12.144 28.341-18.833 45.61-18.833s33.467 6.689 45.612 18.833c25.147 25.15 25.147 66.071 0 91.222-5.751 5.751-15.078 5.751-20.833 0-5.752-5.752-5.752-15.078 0-20.831 13.662-13.664 13.662-35.896 0-49.56-6.58-6.581-15.38-10.205-24.779-10.205s-18.198 3.624-24.778 10.205l-10.774 10.774a14.725 14.725 0 01-17.622 2.43 167.482 167.482 0 00-36.456-15.125 14.729 14.729 0 01-10.735-14.178V64.506c0-19.323-15.72-35.043-35.043-35.043s-35.043 15.72-35.043 35.043v15.212a14.731 14.731 0 01-10.735 14.178 167.502 167.502 0 00-36.456 15.125 14.73 14.73 0 01-17.622-2.43l-10.774-10.774c-6.58-6.581-15.378-10.205-24.778-10.205s-18.199 3.624-24.779 10.205c-13.662 13.662-13.662 35.894 0 49.56l10.774 10.772a14.728 14.728 0 012.43 17.622 167.42 167.42 0 00-15.125 36.456 14.727 14.727 0 01-14.178 10.735H64.503c-19.323 0-35.043 15.72-35.043 35.043s15.72 35.043 35.043 35.043h15.212a14.73 14.73 0 0114.178 10.734 167.58 167.58 0 0015.125 36.457 14.731 14.731 0 01-2.432 17.622l-10.774 10.772c-13.661 13.662-13.661 35.894.001 49.558 6.58 6.581 15.38 10.205 24.779 10.205s18.198-3.624 24.778-10.205l10.775-10.772a14.729 14.729 0 0117.619-2.432 167.592 167.592 0 0036.457 15.125 14.729 14.729 0 0110.735 14.178v15.213c0 19.322 15.72 35.042 35.043 35.042s35.043-15.72 35.043-35.042V432.29a14.731 14.731 0 0110.735-14.178 167.571 167.571 0 0036.457-15.125 14.73 14.73 0 0117.619 2.432l10.774 10.772c6.581 6.581 15.38 10.205 24.779 10.205s18.199-3.624 24.779-10.205c13.662-13.662 13.662-35.895 0-49.56l-10.772-10.772a14.728 14.728 0 01-2.432-17.622 167.58 167.58 0 0015.125-36.457 14.73 14.73 0 0114.178-10.734h15.212c19.323 0 35.043-15.72 35.043-35.043 0-9.635-4.086-18.97-11.21-25.61-5.952-5.547-6.281-14.867-.734-20.818 5.547-5.951 14.87-6.278 20.818-.734C504.496 221.033 512 238.222 512 256.003c0 35.567-28.937 64.503-64.503 64.503H443.1a197.391 197.391 0 01-9.199 22.175l3.118 3.118c25.149 25.15 25.149 66.071.001 91.221-12.145 12.145-28.342 18.834-45.612 18.834s-33.467-6.689-45.611-18.834l-3.12-3.118a196.622 196.622 0 01-22.175 9.2v4.397C320.503 483.066 291.566 512 256 512z" fill="#507c5c"/><circle cx="255.996" cy="255.997" r="117.576" fill="#cff09e"/><path d="M256 388.312c-72.956 0-132.309-59.354-132.309-132.309S183.044 123.692 256 123.692s132.309 59.355 132.309 132.311S328.956 388.312 256 388.312zm0-235.161c-56.711 0-102.849 46.138-102.849 102.85 0 56.711 46.138 102.849 102.849 102.849s102.849-46.138 102.849-102.849c0-56.712-46.138-102.85-102.849-102.85z" fill="#507c5c"/></svg>