<svg id="global" viewBox="0 0 480 480"  xmlns="http://www.w3.org/2000/svg"><path d="M240 0C107.45 0 0 107.45 0 240s107.45 240 240 240 240-107.45 240-240C479.85 107.52 372.48.15 240 0zm207.57 324.08l-68.26 11.78A358.15 358.15 0 00391.87 248h71.93c-.9 26.12-6.4 51.87-16.23 76.08zM16.2 248h71.93c.53 29.7 4.75 59.2 12.56 87.86l-68.26-11.78A222.52 222.52 0 0116.2 248zm16.23-92.08l68.26-11.78A358.15 358.15 0 0088.13 232H16.2c.9-26.12 6.4-51.87 16.23-76.08zM248 128.45c28.75.37 57.42 2.98 85.76 7.83l28.24 4.87A343.4 343.4 0 01375.88 232H248zm88.49-7.94c-29.24-5-58.83-7.7-88.49-8.06v-96c45.86 4.4 85.7 46.4 108.28 107.51zM232 112.45a566.97 566.97 0 00-88.48 8.06l-19.8 3.43C146.3 62.8 186.14 20.8 232 16.4zm-85.75 23.83a550.2 550.2 0 0185.75-7.83V232H104.12A343.4 343.4 0 01118 141.15zM104.12 248H232v103.55a550.35 550.35 0 01-85.76-7.83L118 338.85A343.4 343.4 0 01104.12 248zm39.4 111.49c29.23 5 58.82 7.71 88.48 8.1v96c-45.86-4.4-85.7-46.4-108.28-107.51zm104.48 8.1c29.66-.39 59.24-3.1 88.48-8.1l19.8-3.43C333.7 417.2 293.86 459.2 248 463.6zm85.75-23.87a550.2 550.2 0 01-85.75 7.83V248h127.88A343.4 343.4 0 01362 338.85zM391.87 232c-.53-29.7-4.74-59.2-12.56-87.86l68.26 11.78A222.52 222.52 0 01463.8 232zm47.6-93.71L374.05 127a220.6 220.6 0 00-63.65-99.6 225.06 225.06 0 01129.07 110.89zM169.6 27.39A220.6 220.6 0 00105.95 127l-65.42 11.29A225.06 225.06 0 01169.6 27.39zM40.53 341.72L105.95 353a220.6 220.6 0 0063.65 99.6A225.06 225.06 0 0140.53 341.71zm269.87 110.9A220.6 220.6 0 00374.05 353l65.42-11.29a225.06 225.06 0 01-129.07 110.9zm0 0"/></svg>