<svg aria-hidden="true" style="position: absolute; width: 0; height: 0; overflow: hidden;" version="1.1" xmlns="http://www.w3.org/2000/svg" xmlns:xlink="http://www.w3.org/1999/xlink">
<defs>
<symbol id="icon-clock-1" viewBox="0 0 32 32">
<title>clock-1</title>
<path d="M16 32c-4.274 0-8.292-1.664-11.314-4.686s-4.686-7.040-4.686-11.314 1.664-8.292 4.686-11.314c3.022-3.022 7.040-4.686 11.314-4.686s8.292 1.664 11.314 4.686c3.022 3.022 4.686 7.040 4.686 11.314s-1.664 8.292-4.686 11.314c-3.022 3.022-7.040 4.686-11.314 4.686zM16 1.875c-3.773 0-7.32 1.469-9.988 4.137s-4.137 6.215-4.137 9.988 1.469 7.32 4.137 9.988 6.215 4.137 9.988 4.137 7.32-1.469 9.988-4.137 4.137-6.215 4.137-9.988-1.469-7.32-4.137-9.988-6.215-4.137-9.988-4.137z"></path>
<path d="M15.063 3.752h1.875v2.502h-1.875zM22.225 8.447l1.769-1.769 1.326 1.326-1.769 1.769zM25.746 15.063h2.502v1.875h-2.502zM22.224 23.554l1.326-1.326 1.769 1.769-1.326 1.326zM15.063 25.746h1.875v2.502h-1.875zM6.673 23.996l1.769-1.769 1.326 1.326-1.769 1.769zM3.752 15.063h2.502v1.875h-2.502zM6.675 8.002l1.326-1.326 1.769 1.769-1.326 1.326zM22.618 16.938h-7.556v-7.556h1.875v5.681h5.681z"></path>
</symbol>
<symbol id="icon-compass-1" viewBox="0 0 32 32">
<title>compass-1</title>
<path d="M18.428 4.641c0.333-0.478 0.529-1.059 0.529-1.684 0-1.63-1.326-2.957-2.957-2.957s-2.957 1.326-2.957 2.957c0 0.626 0.196 1.206 0.529 1.684-6.448 1.151-11.358 6.799-11.358 13.572 0 7.602 6.185 13.787 13.787 13.787s13.787-6.185 13.787-13.787c0-6.774-4.91-12.422-11.358-13.572zM28.309 17.486h-1.962c-0.358-5.141-4.479-9.262-9.62-9.62v-1.962c6.221 0.364 11.218 5.361 11.582 11.582zM16 1.455c0.828 0 1.502 0.674 1.502 1.502 0 0.73-0.524 1.34-1.216 1.474-0.083-0.002-0.183-0.003-0.283-0.004h-0.002c-0.095 0-0.19 0.002-0.285 0.004-0.692-0.134-1.216-0.743-1.216-1.474 0-0.828 0.674-1.502 1.502-1.502zM15.272 5.904v1.962c-5.141 0.358-9.262 4.479-9.62 9.62h-1.962c0.364-6.221 5.36-11.218 11.582-11.582zM15.272 30.523c-6.221-0.364-11.218-5.361-11.582-11.582h1.962c0.358 5.141 4.479 9.262 9.62 9.62v1.962zM16 27.132c-4.918 0-8.918-4.001-8.918-8.918s4.001-8.918 8.918-8.918 8.918 4.001 8.918 8.918-4.001 8.918-8.918 8.918zM16.728 30.523v-1.962c5.141-0.358 9.262-4.479 9.62-9.62h1.962c-0.364 6.221-5.36 11.218-11.582 11.582z"></path>
<path d="M16.085 10.464c-0.402 0-0.728 0.326-0.728 0.728v0.001c0 0.402 0.326 0.727 0.728 0.727s0.728-0.326 0.728-0.728-0.326-0.728-0.728-0.728zM14.407 11.351c-0.132-0.379-0.547-0.58-0.927-0.447-3.171 1.106-5.302 4.107-5.302 7.468 0 0.402 0.326 0.728 0.728 0.728s0.728-0.326 0.728-0.728c0-2.742 1.739-5.191 4.326-6.094 0.379-0.132 0.58-0.547 0.447-0.927zM15.915 24.507c-0.402 0-0.728 0.326-0.728 0.728s0.326 0.728 0.728 0.728 0.728-0.326 0.728-0.728v-0.001c0-0.402-0.326-0.727-0.728-0.727zM23.094 17.328c-0.402 0-0.728 0.326-0.728 0.728 0 2.742-1.739 5.191-4.326 6.094-0.379 0.132-0.58 0.547-0.447 0.927 0.105 0.3 0.386 0.488 0.687 0.488 0.079 0 0.16-0.013 0.24-0.041 3.171-1.106 5.302-4.107 5.302-7.468 0-0.402-0.326-0.727-0.727-0.727zM20.408 13.805c-0.132-0.132-0.314-0.213-0.514-0.213-0.105 0-0.205 0.022-0.295 0.062l0.005-0.002-0.181 0.079c-0.978 0.425-2.066 0.613-3.234 0.557-1.105-0.053-2.186 0.365-2.968 1.146s-1.199 1.863-1.146 2.968c0.056 1.167-0.131 2.255-0.557 3.234l-0.079 0.181c-0.038 0.085-0.060 0.185-0.060 0.29 0 0.402 0.326 0.727 0.727 0.727 0 0 0 0 0 0h-0c0.098 0 0.197-0.020 0.29-0.060l0.181-0.079c0.978-0.425 2.066-0.613 3.234-0.557 1.105 0.053 2.186-0.365 2.968-1.146s1.199-1.863 1.146-2.968c-0.056-1.167 0.131-2.255 0.557-3.234l0.079-0.181c0.038-0.085 0.060-0.185 0.060-0.29 0-0.201-0.081-0.383-0.213-0.515v0zM18.472 18.094c0.033 0.696-0.23 1.377-0.722 1.869s-1.174 0.755-1.869 0.722c-0.904-0.043-1.771 0.037-2.593 0.24 0.203-0.822 0.283-1.689 0.24-2.593-0.002-0.035-0.003-0.076-0.003-0.117 0-0.684 0.277-1.303 0.725-1.752l-0 0c0.464-0.464 1.097-0.725 1.751-0.725 0.039 0 0.079 0.001 0.118 0.003 0.904 0.043 1.771-0.037 2.593-0.24-0.203 0.822-0.283 1.689-0.24 2.593z"></path>
</symbol>
<symbol id="icon-exchange-2-1" viewBox="0 0 32 32">
<title>exchange-2-1</title>
<path d="M29.355 20.456c0 1.845-1.496 3.342-3.342 3.342h-21.817l4.4-4.4-1.575-1.575-6.301 6.301c-0.435 0.435-0.435 1.14 0 1.575l6.301 6.301 1.575-1.575-4.4-4.4h21.817c3.074-0.004 5.566-2.495 5.569-5.569v-4.456h-2.228zM2.621 11.544c0-1.846 1.496-3.342 3.342-3.342h21.817l-4.4 4.4 1.575 1.575 6.301-6.301c0.435-0.435 0.435-1.14 0-1.575l-6.301-6.301-1.575 1.575 4.4 4.4h-21.817c-3.074 0.003-5.566 2.495-5.569 5.569v4.456h2.228z"></path>
</symbol>
<symbol id="icon-gear-1" viewBox="0 0 32 32">
<title>gear-1</title>
<path d="M31.24 20.5l-3.368-2.819c0.086-0.588 0.128-1.141 0.128-1.681s-0.042-1.093-0.128-1.681l3.368-2.819c0.147-0.123 0.239-0.306 0.239-0.511 0-0.123-0.033-0.238-0.091-0.336l0.002 0.003-3.066-5.311c-0.118-0.201-0.332-0.333-0.578-0.333-0.082 0-0.16 0.015-0.233 0.042l0.005-0.002-4.119 1.505c-0.881-0.689-1.859-1.253-2.917-1.678l-0.758-4.327c-0.057-0.315-0.329-0.551-0.657-0.551h-6.133c-0 0-0 0-0 0-0.328 0-0.6 0.236-0.656 0.547l-0.001 0.004-0.758 4.327c-1.058 0.425-2.036 0.988-2.917 1.678l-4.119-1.505c-0.303-0.113-0.645 0.012-0.806 0.293l-3.066 5.311c-0.056 0.096-0.089 0.211-0.089 0.333 0 0.205 0.093 0.388 0.238 0.51l0.001 0.001 3.368 2.819c-0.086 0.588-0.128 1.141-0.128 1.681s0.042 1.093 0.128 1.681l-3.368 2.819c-0.147 0.123-0.239 0.306-0.239 0.511 0 0.123 0.033 0.238 0.091 0.336l-0.002-0.003 3.066 5.311c0.163 0.281 0.505 0.404 0.806 0.293l4.119-1.505c0.881 0.689 1.859 1.253 2.917 1.678l0.758 4.328c0.057 0.315 0.329 0.551 0.657 0.551 0 0 0 0 0 0h6.133c0 0 0 0 0 0 0.328 0 0.6-0.236 0.656-0.547l0.001-0.004 0.758-4.328c1.058-0.425 2.036-0.988 2.917-1.678l4.119 1.505c0.303 0.109 0.644-0.012 0.806-0.293l3.066-5.311c0.056-0.096 0.089-0.211 0.089-0.333 0-0.205-0.093-0.388-0.238-0.51l-0.001-0.001zM27.449 25.504l-3.948-1.443c-0.223-0.083-0.475-0.038-0.657 0.115-0.936 0.785-2.006 1.4-3.184 1.831-0.222 0.083-0.385 0.274-0.427 0.507l-0.001 0.004-0.726 4.148h-5.013l-0.726-4.148c-0.043-0.237-0.206-0.428-0.423-0.51l-0.005-0.002c-1.177-0.431-2.248-1.047-3.184-1.831-0.115-0.097-0.264-0.156-0.428-0.156-0.082 0-0.161 0.015-0.234 0.042l0.005-0.002-3.948 1.443-2.506-4.341 3.228-2.703c0.146-0.123 0.239-0.307 0.239-0.512 0-0.040-0.004-0.079-0.010-0.118l0.001 0.004c-0.114-0.656-0.169-1.256-0.169-1.835s0.055-1.179 0.169-1.835c0.006-0.034 0.010-0.073 0.010-0.114 0-0.205-0.092-0.388-0.238-0.511l-0.001-0.001-3.228-2.703 2.506-4.341 3.948 1.443c0.068 0.026 0.147 0.041 0.229 0.041 0.163 0 0.313-0.059 0.429-0.157l-0.001 0.001c0.936-0.784 2.007-1.4 3.184-1.831 0.222-0.083 0.385-0.274 0.427-0.507l0.001-0.004 0.726-4.148h5.013l0.726 4.148c0.043 0.237 0.206 0.428 0.423 0.51l0.005 0.002c1.177 0.431 2.248 1.047 3.184 1.831 0.182 0.153 0.434 0.198 0.657 0.115l3.948-1.443 2.506 4.341-3.229 2.703c-0.146 0.123-0.239 0.307-0.239 0.511 0 0.040 0.004 0.079 0.010 0.118l-0.001-0.004c0.114 0.656 0.169 1.257 0.169 1.835s-0.055 1.179-0.169 1.835c-0.006 0.034-0.010 0.073-0.010 0.114 0 0.205 0.092 0.388 0.238 0.511l0.001 0.001 3.229 2.703-2.506 4.341z"></path>
<path d="M16 9.333c-3.676 0-6.667 2.991-6.667 6.667s2.991 6.667 6.667 6.667 6.667-2.991 6.667-6.667-2.991-6.667-6.667-6.667zM16 21.333c-2.941 0-5.333-2.393-5.333-5.333s2.393-5.333 5.333-5.333 5.333 2.393 5.333 5.333-2.393 5.333-5.333 5.333z"></path>
</symbol>
<symbol id="icon-global-1" viewBox="0 0 32 32">
<title>global-1</title>
<path d="M16 0c-8.836 0-16 7.164-16 16s7.164 16 16 16 16-7.164 16-16c-0.010-8.832-7.168-15.99-16-16zM29.838 21.605l-4.55 0.785c0.496-1.747 0.799-3.758 0.837-5.835l0-0.022h4.795c-0.066 1.843-0.457 3.577-1.119 5.17l0.036-0.098zM1.080 16.533h4.795c0.038 2.099 0.342 4.111 0.877 6.025l-0.040-0.168-4.55-0.785c-0.625-1.495-1.017-3.229-1.082-5.046l-0.001-0.026zM2.162 10.395l4.55-0.785c-0.496 1.746-0.799 3.758-0.837 5.835l-0 0.022h-4.795c0.066-1.843 0.457-3.577 1.119-5.17l-0.036 0.098zM16.533 8.563c2.039 0.027 4.014 0.216 5.938 0.554l-0.221-0.032 1.883 0.325c0.551 1.805 0.886 3.884 0.925 6.036l0 0.021h-8.525zM22.433 8.034c-1.758-0.316-3.796-0.511-5.874-0.537l-0.025-0v-6.4c3.058 0.294 5.714 3.093 7.219 7.167zM15.467 7.497c-2.103 0.027-4.141 0.221-6.126 0.571l0.227-0.033-1.32 0.228c1.505-4.075 4.161-6.876 7.219-7.168zM9.75 9.085c1.703-0.307 3.678-0.495 5.692-0.522l0.025-0v6.903h-8.525c0.039-2.172 0.374-4.251 0.967-6.219l-0.042 0.162zM6.941 16.533h8.525v6.903c-2.039-0.027-4.014-0.216-5.938-0.554l0.221 0.032-1.883-0.325c-0.551-1.805-0.886-3.884-0.925-6.036l-0-0.021zM9.567 23.966c1.757 0.316 3.794 0.512 5.873 0.54l0.027 0v6.4c-3.058-0.294-5.714-3.094-7.219-7.168zM16.533 24.506c2.105-0.029 4.142-0.224 6.127-0.574l-0.228 0.033 1.32-0.228c-1.505 4.075-4.161 6.876-7.219 7.168zM22.25 22.915c-1.703 0.307-3.678 0.495-5.692 0.522l-0.025 0v-6.903h8.525c-0.039 2.172-0.374 4.251-0.967 6.219l0.042-0.162zM26.125 15.467c-0.038-2.099-0.342-4.111-0.877-6.025l0.040 0.168 4.55 0.785c0.625 1.495 1.017 3.229 1.082 5.046l0.001 0.026zM29.298 9.219l-4.362-0.753c-0.827-2.645-2.297-4.889-4.23-6.628l-0.013-0.012c3.772 1.284 6.798 3.917 8.566 7.31l0.039 0.083zM11.307 1.826c-1.947 1.751-3.417 3.995-4.215 6.536l-0.028 0.104-4.362 0.753c1.807-3.476 4.833-6.109 8.499-7.362l0.106-0.031zM2.702 22.781l4.362 0.753c0.827 2.645 2.297 4.889 4.23 6.628l0.013 0.012c-3.772-1.284-6.798-3.917-8.566-7.31l-0.039-0.083zM20.693 30.173c1.947-1.751 3.416-3.995 4.215-6.536l0.028-0.104 4.362-0.753c-1.807 3.476-4.833 6.108-8.499 7.361l-0.106 0.031z"></path>
</symbol>
<symbol id="icon-heart-1-1" viewBox="0 0 32 32">
<title>heart-1-1</title>
<path d="M16 30.22c-0.456 0-0.895-0.165-1.237-0.465-1.293-1.13-2.539-2.193-3.639-3.13l-0.006-0.005c-3.224-2.747-6.008-5.12-7.945-7.457-2.165-2.613-3.174-5.090-3.174-7.796 0-2.629 0.902-5.055 2.539-6.831 1.657-1.797 3.929-2.786 6.401-2.786 1.847 0 3.539 0.584 5.028 1.736 0.751 0.581 1.433 1.293 2.033 2.122 0.6-0.83 1.281-1.541 2.033-2.123 1.489-1.152 3.181-1.736 5.028-1.736 2.471 0 4.744 0.99 6.401 2.786 1.637 1.776 2.538 4.201 2.538 6.831 0 2.706-1.008 5.184-3.174 7.796-1.937 2.337-4.721 4.71-7.944 7.457-1.102 0.939-2.35 2.002-3.645 3.136-0.328 0.288-0.762 0.464-1.236 0.464-0 0-0 0-0.001 0h0zM8.939 3.624c-1.942 0-3.725 0.775-5.023 2.182-1.317 1.428-2.042 3.403-2.042 5.56 0 2.276 0.846 4.312 2.743 6.6 1.833 2.212 4.56 4.536 7.717 7.227l0.006 0.005c1.104 0.941 2.355 2.007 3.657 3.146 1.31-1.141 2.563-2.209 3.669-3.151 3.157-2.691 5.884-5.014 7.717-7.226 1.896-2.289 2.742-4.324 2.742-6.6 0-2.157-0.725-4.132-2.042-5.56-1.297-1.407-3.081-2.182-5.023-2.182-1.422 0-2.728 0.452-3.881 1.344-1.028 0.795-1.743 1.8-2.163 2.503-0.216 0.362-0.596 0.577-1.016 0.577s-0.801-0.216-1.016-0.577c-0.419-0.703-1.135-1.708-2.163-2.503-1.153-0.892-2.459-1.344-3.881-1.344z"></path>
</symbol>
<symbol id="icon-mail-1" viewBox="0 0 32 32">
<title>mail-1</title>
<path d="M30.4 3.733h-28.8c-0.884 0-1.6 0.716-1.6 1.6v21.333c0 0.884 0.716 1.6 1.6 1.6h28.8c0.884 0 1.6-0.716 1.6-1.6v-21.333c0-0.884-0.716-1.6-1.6-1.6zM30.933 26.667c0 0.295-0.239 0.533-0.533 0.533v0h-28.8c-0.295 0-0.533-0.239-0.533-0.533v0-21.333c0-0.295 0.239-0.533 0.533-0.533v0h28.8c0.295 0 0.533 0.239 0.533 0.533v21.333z"></path>
<path d="M29.38 5.869c-0.014-0.001-0.030-0.002-0.046-0.002-0.131 0-0.251 0.047-0.344 0.126l-12.303 10.335c-0.184 0.156-0.424 0.25-0.686 0.25s-0.502-0.095-0.688-0.251l0.002 0.001-12.304-10.336c-0.091-0.075-0.209-0.12-0.337-0.12-0.295 0-0.533 0.239-0.533 0.533 0 0.161 0.071 0.306 0.184 0.403l0.001 0.001 12.304 10.335c0.793 0.668 1.952 0.668 2.745 0l12.304-10.335c0.117-0.098 0.19-0.245 0.19-0.409 0-0.131-0.047-0.251-0.126-0.344l0.001 0.001c-0.089-0.105-0.216-0.175-0.36-0.188l-0.002-0zM10.258 17.071c-0.035-0.008-0.075-0.013-0.116-0.013-0.158 0-0.3 0.069-0.398 0.178l-0 0-7.467 8c-0.092 0.096-0.149 0.226-0.149 0.369 0 0.294 0.239 0.533 0.533 0.533 0.157 0 0.297-0.067 0.395-0.175l0-0 7.467-8c0.094-0.096 0.152-0.228 0.152-0.373 0-0.253-0.177-0.465-0.414-0.52l-0.004-0.001zM22.257 17.236c-0.098-0.111-0.241-0.18-0.399-0.18-0.295 0-0.533 0.239-0.533 0.533 0 0.146 0.058 0.278 0.153 0.374l-0-0 7.467 8c0.097 0.1 0.233 0.162 0.383 0.162 0.295 0 0.533-0.239 0.533-0.533 0-0.137-0.052-0.262-0.137-0.357l-7.466-7.999z"></path>
</symbol>
<symbol id="icon-phone-1-1" viewBox="0 0 32 32">
<title>phone-1-1</title>
<path d="M31.16 24.686l-6.477-4.319c-0.822-0.544-1.924-0.365-2.531 0.411l-1.887 2.426c-0.149 0.195-0.381 0.319-0.642 0.319-0.144 0-0.279-0.038-0.396-0.104l0.004 0.002-0.359-0.198c-1.19-0.648-2.67-1.456-5.652-4.439s-3.791-4.465-4.44-5.652l-0.197-0.359c-0.065-0.114-0.104-0.251-0.104-0.396 0-0.261 0.124-0.492 0.315-0.64l0.002-0.001 2.424-1.886c0.776-0.608 0.955-1.709 0.412-2.531l-4.319-6.477c-0.557-0.837-1.673-1.089-2.535-0.571l-2.708 1.627c-0.841 0.501-1.464 1.293-1.735 2.234l-0.007 0.027c-0.975 3.554-0.242 9.687 8.793 18.722 7.187 7.186 12.537 9.119 16.214 9.119 0.012 0 0.026 0 0.040 0 0.877 0 1.726-0.12 2.532-0.343l-0.066 0.016c0.968-0.277 1.761-0.901 2.251-1.725l0.010-0.018 1.629-2.707c0.519-0.862 0.268-1.979-0.57-2.536zM30.812 26.675l-1.625 2.708c-0.36 0.607-0.929 1.058-1.607 1.256l-0.019 0.005c-3.281 0.901-9.012 0.155-17.685-8.519s-9.419-14.404-8.519-17.685c0.203-0.698 0.654-1.269 1.249-1.622l0.013-0.007 2.708-1.625c0.374-0.225 0.859-0.116 1.1 0.247l4.316 6.476c0.236 0.357 0.158 0.835-0.178 1.099l-2.425 1.886c-0.738 0.564-0.949 1.585-0.494 2.395l0.193 0.35c0.682 1.25 1.529 2.805 4.622 5.898s4.648 3.94 5.897 4.622l0.35 0.193c0.81 0.454 1.831 0.244 2.395-0.494l1.886-2.425c0.264-0.336 0.742-0.414 1.099-0.178l6.476 4.319c0.364 0.241 0.473 0.726 0.247 1.1zM18.132 5.336c5.004 0.006 9.060 4.061 9.065 9.065 0 0.295 0.239 0.533 0.533 0.533s0.533-0.239 0.533-0.533c-0.006-5.593-4.539-10.126-10.132-10.132-0.295 0-0.533 0.239-0.533 0.533s0.239 0.533 0.533 0.533z"></path>
<path d="M18.132 8.536c3.238 0.004 5.862 2.628 5.866 5.866 0 0.294 0.239 0.533 0.533 0.533s0.533-0.239 0.533-0.533v0c-0.004-3.827-3.106-6.928-6.932-6.932-0.295 0-0.533 0.239-0.533 0.533s0.239 0.533 0.533 0.533z"></path>
<path d="M18.132 11.735c1.472 0.002 2.664 1.194 2.666 2.666 0 0.294 0.239 0.533 0.533 0.533s0.533-0.239 0.533-0.533v0c-0.002-2.061-1.672-3.73-3.733-3.733-0.295 0-0.533 0.239-0.533 0.533s0.239 0.533 0.533 0.533z"></path>
</symbol>
<symbol id="icon-smart-cart-1" viewBox="0 0 32 32">
<title>smart-cart-1</title>
<path d="M31.121 6.072c-0.593-0.678-1.439-1.051-2.381-1.051h-22.777l-0.229-1.719c-0.247-1.852-1.536-3.302-2.935-3.302h-1.674c-0.518 0-0.938 0.42-0.938 0.938s0.42 0.938 0.938 0.938h1.674c0.301 0 0.938 0.636 1.076 1.675l2.684 20.127c0.118 0.887 0.574 1.718 1.283 2.339 0.526 0.461 1.148 0.767 1.799 0.895-0.262 0.473-0.416 1.037-0.416 1.636 0 0.002 0 0.003 0 0.004v-0c0 1.901 1.547 3.448 3.448 3.448s3.448-1.547 3.448-3.448c0-0.001 0-0.002 0-0.002 0-0.574-0.141-1.114-0.39-1.589l0.009 0.019h4.913c-0.24 0.456-0.381 0.997-0.381 1.57 0 0.001 0 0.002 0 0.003v-0c0 1.901 1.547 3.448 3.448 3.448s3.448-1.547 3.448-3.448c0-0.001 0-0.002 0-0.002 0-0.574-0.141-1.114-0.39-1.589l0.009 0.019h2.456c0.518 0 0.938-0.42 0.938-0.938s-0.42-0.938-0.938-0.938h-18.912c-0.916 0-1.792-0.767-1.913-1.675l-0.196-1.471h7.297c0 0 0.001 0 0.001 0s0.001-0 0.001-0h6.023c0 0 0 0 0.001 0s0-0 0-0h5.188c0.895 0 1.779-0.342 2.488-0.963s1.165-1.452 1.283-2.339l1.345-10.085c0.125-0.934-0.134-1.821-0.727-2.499zM14.246 28.552c0 0.867-0.706 1.573-1.573 1.573s-1.573-0.706-1.573-1.573c0-0.867 0.706-1.573 1.573-1.573s1.573 0.706 1.573 1.573zM25.292 28.552c0 0.867-0.706 1.573-1.573 1.573s-1.573-0.706-1.573-1.573c0-0.867 0.706-1.573 1.573-1.573s1.573 0.706 1.573 1.573zM29.71 7.307c0.232 0.265 0.331 0.626 0.279 1.016l-0.564 4.229h-6.379l0.377-5.656h5.316c0.394 0 0.738 0.146 0.97 0.411zM16.396 20.083l-0.377-5.656h5.023l-0.377 5.656zM15.894 12.552l-0.377-5.656h6.027l-0.377 5.656zM13.638 6.896l0.377 5.656h-7.048l-0.754-5.656zM7.217 14.427h6.923l0.377 5.656h-6.546zM26.731 20.083h-4.187l0.377-5.656h6.254l-0.531 3.981c-0.121 0.908-0.997 1.675-1.913 1.675z"></path>
</symbol>
<symbol id="icon-strongbox-1" viewBox="0 0 32 32">
<title>strongbox-1</title>
<path d="M31.467 0h-30.933c-0 0-0 0-0 0-0.295 0-0.533 0.239-0.533 0.533 0 0 0 0 0 0v0 30.933c0 0.294 0.239 0.533 0.533 0.533h2.667c0 0 0 0 0 0 0.249 0 0.458-0.17 0.516-0.401l0.001-0.004 0.433-1.729h23.7l0.433 1.729c0.060 0.234 0.269 0.404 0.517 0.404h2.667c0.294 0 0.533-0.239 0.533-0.533v-30.933c0-0 0-0 0-0 0-0.295-0.239-0.533-0.533-0.533-0 0-0 0-0 0v0zM2.783 30.933h-1.717v-1.067h1.983zM30.933 30.933h-1.717l-0.267-1.067h1.983zM30.933 28.8h-29.867v-27.733h29.867z"></path>
<path d="M2.133 17.067h1.067v9.067c0 0 0 0 0 0 0 0.295 0.239 0.533 0.533 0.533 0 0 0 0 0 0h24.533c0 0 0 0 0 0 0.295 0 0.533-0.239 0.533-0.533 0-0 0-0 0-0v0-3.2h0.533c0 0 0 0 0 0 0.295 0 0.533-0.239 0.533-0.533 0-0 0-0 0-0v0-3.2c0-0.294-0.239-0.533-0.533-0.533h-0.533v-7.467h0.533c0 0 0 0 0 0 0.294 0 0.533-0.239 0.533-0.533v0-3.2c0-0.295-0.239-0.533-0.533-0.533-0 0-0 0-0 0h-0.533v-3.2c0-0 0-0 0-0 0-0.295-0.239-0.533-0.533-0.533-0 0-0 0-0 0h-24.533c-0 0-0 0-0 0-0.295 0-0.533 0.239-0.533 0.533 0 0 0 0 0 0v0 9.067h-1.067c-0.294 0-0.533 0.239-0.533 0.533v0 3.2c0 0.294 0.239 0.533 0.533 0.533zM28.8 21.867h-1.6v-2.133h1.6zM28.8 8v2.133h-1.6v-2.133zM4.267 4.267h23.467v2.667h-1.067c-0 0-0 0-0 0-0.295 0-0.533 0.239-0.533 0.533 0 0 0 0 0 0v0 3.2c0 0.294 0.239 0.533 0.533 0.533h1.067v7.467h-1.067c-0 0-0 0-0 0-0.294 0-0.533 0.239-0.533 0.533v0 3.2c0 0 0 0 0 0 0 0.295 0.239 0.533 0.533 0.533 0 0 0 0 0 0h1.067v2.667h-23.467v-8.534h1.067c0 0 0 0 0 0 0.294 0 0.533-0.239 0.533-0.533v0-3.2c0-0.294-0.239-0.533-0.533-0.533h-1.067zM2.667 13.867h2.133v2.133h-2.133z"></path>
<path d="M16 13.6c1.178 0 2.133-0.955 2.133-2.133s-0.955-2.134-2.133-2.134-2.133 0.955-2.133 2.134c0 1.178 0.955 2.133 2.133 2.133zM16 10.4c0.589 0 1.067 0.478 1.067 1.067s-0.477 1.067-1.067 1.067-1.067-0.478-1.067-1.067c0-0.589 0.477-1.067 1.067-1.067zM16 17.6c-1.473-0.008-2.673 1.18-2.68 2.653s1.18 2.673 2.653 2.681c0.004 0 0.009 0 0.014 0 0.869 0 1.642-0.416 2.128-1.060l0.005-0.007h3.747c0.884 0 1.6-0.716 1.6-1.6s-0.716-1.6-1.6-1.6h-3.747c-0.488-0.648-1.255-1.064-2.119-1.067h-0zM16 21.867c-0.884 0-1.6-0.716-1.6-1.6s0.717-1.6 1.6-1.6 1.6 0.716 1.6 1.6c0 0.884-0.717 1.6-1.6 1.6zM18.613 19.733h3.253c0.294 0 0.533 0.239 0.533 0.533 0 0 0 0 0 0 0 0.294-0.239 0.533-0.533 0.533h-3.253c0.034-0.16 0.054-0.345 0.054-0.533s-0.020-0.373-0.057-0.551l0.003 0.017z"></path>
<path d="M16 16.533c2.798 0 5.067-2.269 5.067-5.067s-2.268-5.067-5.067-5.067-5.067 2.268-5.067 5.067c0.003 2.797 2.27 5.063 5.067 5.067zM12.8 10.933h-0.76c0.099-0.721 0.378-1.363 0.791-1.898l-0.007 0.009 0.533 0.536c0.097 0.097 0.23 0.156 0.377 0.156s0.281-0.060 0.377-0.156v0c0.097-0.097 0.156-0.23 0.156-0.377s-0.060-0.281-0.156-0.377v0l-0.537-0.536c0.526-0.406 1.169-0.685 1.87-0.782l0.021-0.002v0.76c0.005 0.291 0.242 0.525 0.533 0.525s0.529-0.234 0.533-0.525v-0.76c0.721 0.099 1.363 0.379 1.898 0.791l-0.009-0.007-0.537 0.536c-0.096 0.097-0.156 0.23-0.156 0.377s0.060 0.281 0.156 0.377v0c0.096 0.097 0.23 0.156 0.377 0.156s0.281-0.060 0.377-0.156v0l0.533-0.536c0.406 0.525 0.685 1.167 0.782 1.868l0.002 0.021h-0.757c-0.294 0-0.533 0.239-0.533 0.533 0 0 0 0 0 0v0c0 0.294 0.239 0.533 0.533 0.533h0.76c-0.099 0.721-0.378 1.364-0.791 1.898l0.007-0.009-0.533-0.537c-0.097-0.097-0.23-0.156-0.377-0.156s-0.281 0.060-0.377 0.156v0c-0.097 0.097-0.156 0.23-0.156 0.377s0.060 0.281 0.156 0.377v0l0.537 0.536c-0.526 0.406-1.169 0.685-1.87 0.782l-0.021 0.002v-0.76c-0.005-0.291-0.242-0.525-0.533-0.525s-0.529 0.234-0.533 0.525v0.76c-0.721-0.099-1.363-0.379-1.898-0.791l0.009 0.007 0.537-0.536c0.096-0.097 0.156-0.23 0.156-0.377s-0.060-0.281-0.156-0.377v0c-0.097-0.096-0.23-0.156-0.377-0.156s-0.281 0.060-0.377 0.156v0l-0.533 0.537c-0.406-0.525-0.685-1.167-0.782-1.868l-0.002-0.021h0.757c0.294 0 0.533-0.239 0.533-0.533 0-0 0-0 0-0 0-0.294-0.239-0.533-0.533-0.533v0z"></path>
</symbol>
</defs>
</svg>
